<?xml version="1.0" encoding="UTF-8" standalone="no"?>
<!-- Created with Inkscape (http://www.inkscape.org/) -->

<svg
   xmlns:dc="http://purl.org/dc/elements/1.1/"
   xmlns:cc="http://creativecommons.org/ns#"
   xmlns:rdf="http://www.w3.org/1999/02/22-rdf-syntax-ns#"
   xmlns:svg="http://www.w3.org/2000/svg"
   xmlns="http://www.w3.org/2000/svg"
   xmlns:sodipodi="http://sodipodi.sourceforge.net/DTD/sodipodi-0.dtd"
   xmlns:inkscape="http://www.inkscape.org/namespaces/inkscape"
   width="744.09448819"
   height="1052.3622047"
   id="svg2"
   version="1.1"
   inkscape:version="0.48.1 r9760"
   sodipodi:docname="rocket_orange_red.svg"
   inkscape:export-filename="/Users/audreyr/code/auditionrocket/ar/assets/logo/rocket_orange_red_53x50.png"
   inkscape:export-xdpi="11.282432"
   inkscape:export-ydpi="11.282432">
  <defs
     id="defs4" />
  <sodipodi:namedview
     id="base"
     pagecolor="#ffffff"
     bordercolor="#666666"
     borderopacity="1.0"
     inkscape:pageopacity="0.0"
     inkscape:pageshadow="2"
     inkscape:zoom="0.50000001"
     inkscape:cx="-263.54393"
     inkscape:cy="309.43147"
     inkscape:document-units="px"
     inkscape:current-layer="layer1"
     showgrid="false"
     inkscape:window-width="1280"
     inkscape:window-height="746"
     inkscape:window-x="0"
     inkscape:window-y="0"
     inkscape:window-maximized="1" />
  <metadata
     id="metadata7">
    <rdf:RDF>
      <cc:Work
         rdf:about="">
        <dc:format>image/svg+xml</dc:format>
        <dc:type
           rdf:resource="http://purl.org/dc/dcmitype/StillImage" />
        <dc:title />
      </cc:Work>
    </rdf:RDF>
  </metadata>
  <g
     inkscape:label="Layer 1"
     inkscape:groupmode="layer"
     id="layer1">
    <g
       id="g3812">
      <path
         inkscape:export-ydpi="11.222174"
         inkscape:export-xdpi="11.222174"
         inkscape:export-filename="/Users/audreyr/code/auditionrocket/ar/assets/img/rocket_orange_darkred_53x50.png"
         sodipodi:nodetypes="csccsc"
         inkscape:connector-curvature="0"
         id="path2987"
         d="m 578.57142,609.50504 c 0,0 -117.14285,-20 -194.28571,57.14285 -77.14286,77.14286 -111.42857,157.14286 -111.42857,157.14286 l 74.28571,65.71429 c 0,0 132.36809,-50.39039 185.71429,-142.85714 42.85714,-74.28572 45.71428,-137.14286 45.71428,-137.14286 z"
         style="fill:#ff8342;fill-opacity:1;stroke:none" />
      <path
         inkscape:export-ydpi="11.222174"
         inkscape:export-xdpi="11.222174"
         inkscape:export-filename="/Users/audreyr/code/auditionrocket/ar/assets/img/rocket_orange_darkred_53x50.png"
         sodipodi:nodetypes="cscscscsc"
         inkscape:connector-curvature="0"
         id="path3757"
         d="m 300,846.64789 c 0,0 12.85714,-69.99999 -30,-84.28571 -42.85715,-14.28571 -107.14286,62.85714 -107.14286,62.85714 0,0 67.82573,-19.61875 85.71428,-4.28571 30,25.71428 17.14286,62.85714 17.14286,62.85714 0,0 61.42857,-18.57143 64.28571,15.71429 2.85715,34.28571 -12.85714,81.42857 -12.85714,81.42857 0,0 68.57143,-40.00001 68.57143,-88.57143 C 385.71428,843.79075 300,846.64789 300,846.64789 z"
         style="fill:#d11112;fill-opacity:1;stroke:none" />
      <path
         inkscape:export-ydpi="11.222174"
         inkscape:export-xdpi="11.222174"
         inkscape:export-filename="/Users/audreyr/code/auditionrocket/ar/assets/img/rocket_orange_darkred_53x50.png"
         sodipodi:type="star"
         style="fill:#ff8342;fill-opacity:1;stroke:none"
         id="path3761"
         sodipodi:sides="5"
         sodipodi:cx="375.71429"
         sodipodi:cy="243.79076"
         sodipodi:r1="44.354786"
         sodipodi:r2="22.177393"
         sodipodi:arg1="1.8313987"
         sodipodi:arg2="2.4597172"
         inkscape:flatsided="false"
         inkscape:rounded="0"
         inkscape:randomized="0"
         d="m 364.28572,286.6479 -5.78978,-28.87984 -27.07283,-11.60293 25.67721,-14.43077 2.66909,-29.33331 21.65917,19.96113 28.72242,-6.52604 -12.29111,26.76743 15.08235,25.29999 -29.2555,-3.41795 z"
         inkscape:transform-center-x="0.75303105"
         inkscape:transform-center-y="1.1189745"
         transform="matrix(0.43280503,-0.05855446,0.05855446,0.43280503,58.57136,794.09263)" />
      <path
         inkscape:export-ydpi="11.222174"
         inkscape:export-xdpi="11.222174"
         inkscape:export-filename="/Users/audreyr/code/auditionrocket/ar/assets/img/rocket_orange_darkred_53x50.png"
         transform="matrix(0.31748029,0.29992513,-0.29992513,0.31748029,197.86595,747.52183)"
         inkscape:transform-center-y="0.4491219"
         inkscape:transform-center-x="-1.417495"
         d="m 364.28572,286.6479 -5.78978,-28.87984 -27.07283,-11.60293 25.67721,-14.43077 2.66909,-29.33331 21.65917,19.96113 28.72242,-6.52604 -12.29111,26.76743 15.08235,25.29999 -29.2555,-3.41795 z"
         inkscape:randomized="0"
         inkscape:rounded="0"
         inkscape:flatsided="false"
         sodipodi:arg2="2.4597172"
         sodipodi:arg1="1.8313987"
         sodipodi:r2="22.177393"
         sodipodi:r1="44.354786"
         sodipodi:cy="243.79076"
         sodipodi:cx="375.71429"
         sodipodi:sides="5"
         id="path3763"
         style="fill:#ff8342;fill-opacity:1;stroke:none"
         sodipodi:type="star" />
      <path
         inkscape:export-ydpi="11.222174"
         inkscape:export-xdpi="11.222174"
         inkscape:export-filename="/Users/audreyr/code/auditionrocket/ar/assets/img/rocket_orange_darkred_53x50.png"
         sodipodi:type="star"
         style="fill:#ff8342;fill-opacity:1;stroke:none"
         id="path3765"
         sodipodi:sides="5"
         sodipodi:cx="375.71429"
         sodipodi:cy="243.79076"
         sodipodi:r1="44.354786"
         sodipodi:r2="22.177393"
         sodipodi:arg1="1.8313987"
         sodipodi:arg2="2.4597172"
         inkscape:flatsided="false"
         inkscape:rounded="0"
         inkscape:randomized="0"
         d="m 364.28572,286.6479 -5.78978,-28.87984 -27.07283,-11.60293 25.67721,-14.43077 2.66909,-29.33331 21.65917,19.96113 28.72242,-6.52604 -12.29111,26.76743 15.08235,25.29999 -29.2555,-3.41795 z"
         inkscape:transform-center-x="0.80168759"
         inkscape:transform-center-y="-1.4395561"
         transform="matrix(0.50616291,0.13231275,-0.13231275,0.50616291,18.336773,731.16348)" />
      <path
         inkscape:export-ydpi="11.222174"
         inkscape:export-xdpi="11.222174"
         inkscape:export-filename="/Users/audreyr/code/auditionrocket/ar/assets/img/rocket_orange_darkred_53x50.png"
         transform="matrix(0.03027446,-0.52477891,0.52477891,0.03027446,43.829898,1164.8784)"
         inkscape:transform-center-y="2.1984968"
         inkscape:transform-center-x="0.029321338"
         d="m 364.28572,286.6479 -5.78978,-28.87984 -27.07283,-11.60293 25.67721,-14.43077 2.66909,-29.33331 21.65917,19.96113 28.72242,-6.52604 -12.29111,26.76743 15.08235,25.29999 -29.2555,-3.41795 z"
         inkscape:randomized="0"
         inkscape:rounded="0"
         inkscape:flatsided="false"
         sodipodi:arg2="2.4597172"
         sodipodi:arg1="1.8313987"
         sodipodi:r2="22.177393"
         sodipodi:r1="44.354786"
         sodipodi:cy="243.79076"
         sodipodi:cx="375.71429"
         sodipodi:sides="5"
         id="path3767"
         style="fill:#ff8342;fill-opacity:1;stroke:none"
         sodipodi:type="star" />
      <path
         inkscape:export-ydpi="11.222174"
         inkscape:export-xdpi="11.222174"
         inkscape:export-filename="/Users/audreyr/code/auditionrocket/ar/assets/img/rocket_orange_darkred_53x50.png"
         sodipodi:type="star"
         style="fill:#ff8342;fill-opacity:1;stroke:none"
         id="path3769"
         sodipodi:sides="5"
         sodipodi:cx="375.71429"
         sodipodi:cy="243.79076"
         sodipodi:r1="44.354786"
         sodipodi:r2="22.177393"
         sodipodi:arg1="1.8313987"
         sodipodi:arg2="2.4597172"
         inkscape:flatsided="false"
         inkscape:rounded="0"
         inkscape:randomized="0"
         d="m 364.28572,286.6479 -5.78978,-28.87984 -27.07283,-11.60293 25.67721,-14.43077 2.66909,-29.33331 21.65917,19.96113 28.72242,-6.52604 -12.29111,26.76743 15.08235,25.29999 -29.2555,-3.41795 z"
         inkscape:transform-center-x="-1.0416881"
         inkscape:transform-center-y="0.4564119"
         transform="matrix(0.31054585,-0.16146846,0.16146846,0.31054585,124.67452,891.89266)" />
      <path
         inkscape:export-ydpi="11.222174"
         inkscape:export-xdpi="11.222174"
         inkscape:export-filename="/Users/audreyr/code/auditionrocket/ar/assets/img/rocket_orange_darkred_53x50.png"
         transform="matrix(0.28722343,-0.16561457,0.16561457,0.28722343,97.542257,984.02233)"
         inkscape:transform-center-y="0.2349327"
         inkscape:transform-center-x="-1.1789657"
         d="m 364.28572,286.6479 -5.78978,-28.87984 -27.07283,-11.60293 25.67721,-14.43077 2.66909,-29.33331 21.65917,19.96113 28.72242,-6.52604 -12.29111,26.76743 15.08235,25.29999 -29.2555,-3.41795 z"
         inkscape:randomized="0"
         inkscape:rounded="0"
         inkscape:flatsided="false"
         sodipodi:arg2="2.4597172"
         sodipodi:arg1="1.8313987"
         sodipodi:r2="22.177393"
         sodipodi:r1="44.354786"
         sodipodi:cy="243.79076"
         sodipodi:cx="375.71429"
         sodipodi:sides="5"
         id="path3771"
         style="fill:#ff8342;fill-opacity:1;stroke:none"
         sodipodi:type="star" />
      <path
         inkscape:export-ydpi="11.222174"
         inkscape:export-xdpi="11.222174"
         inkscape:export-filename="/Users/audreyr/code/auditionrocket/ar/assets/img/rocket_orange_darkred_53x50.png"
         transform="matrix(0.97667615,-0.2147177,0.2147177,0.97667615,54.988339,537.78722)"
         inkscape:transform-center-y="3.655396"
         inkscape:transform-center-x="0.60562125"
         d="m 364.28572,286.6479 -5.78978,-28.87984 -27.07283,-11.60293 25.67721,-14.43077 2.66909,-29.33331 21.65917,19.96113 28.72242,-6.52604 -12.29111,26.76743 15.08235,25.29999 -29.2555,-3.41795 z"
         inkscape:randomized="0"
         inkscape:rounded="0"
         inkscape:flatsided="false"
         sodipodi:arg2="2.4597172"
         sodipodi:arg1="1.8313987"
         sodipodi:r2="22.177393"
         sodipodi:r1="44.354786"
         sodipodi:cy="243.79076"
         sodipodi:cx="375.71429"
         sodipodi:sides="5"
         id="path3759"
         style="fill:#ffffff;fill-opacity:1;stroke:#d11112;stroke-width:8.89999962;stroke-miterlimit:4;stroke-opacity:1;stroke-dasharray:none"
         sodipodi:type="star" />
    </g>
    <g
       id="g3823"
       transform="translate(454,38)">
      <path
         style="fill:#ff8342;fill-opacity:1;stroke:none"
         d="m 120,52.362187 c 0,0 -117.1428545,-20 -194.285714,57.142853 C -151.42857,186.6479 -185.71428,266.6479 -185.71428,266.6479 l 74.28571,65.71429 c 0,0 132.368086,-50.39039 185.714286,-142.85714 C 117.14286,115.21933 120,52.362187 120,52.362187 z"
         id="path3794"
         inkscape:connector-curvature="0"
         sodipodi:nodetypes="csccsc" />
      <path
         style="fill:#ff1112;fill-opacity:1;stroke:none"
         d="m -158.57142,289.50504 c 0,0 12.85714,-69.99999 -30,-84.28571 -42.85715,-14.28571 -107.14287,62.85714 -107.14287,62.85714 0,0 67.82574,-19.61875 85.71429,-4.28571 30,25.71428 17.14286,62.85714 17.14286,62.85714 0,0 61.42857,-18.57143 64.28571,15.71429 2.85715,34.28571 -12.85714,81.42857 -12.85714,81.42857 0,0 68.571426,-40.00001 68.571426,-88.57143 0,-48.57143 -85.714276,-45.71429 -85.714276,-45.71429 z"
         id="path3796"
         inkscape:connector-curvature="0"
         sodipodi:nodetypes="cscscscsc" />
      <path
         transform="matrix(0.43280503,-0.05855446,0.05855446,0.43280503,-400.00007,236.94978)"
         inkscape:transform-center-y="1.1189745"
         inkscape:transform-center-x="0.75303105"
         d="m 364.28572,286.6479 -5.78978,-28.87984 -27.07283,-11.60293 25.67721,-14.43077 2.66909,-29.33331 21.65917,19.96113 28.72242,-6.52604 -12.29111,26.76743 15.08235,25.29999 -29.2555,-3.41795 z"
         inkscape:randomized="0"
         inkscape:rounded="0"
         inkscape:flatsided="false"
         sodipodi:arg2="2.4597172"
         sodipodi:arg1="1.8313987"
         sodipodi:r2="22.177393"
         sodipodi:r1="44.354786"
         sodipodi:cy="243.79076"
         sodipodi:cx="375.71429"
         sodipodi:sides="5"
         id="path3798"
         style="fill:#ff8342;fill-opacity:1;stroke:none"
         sodipodi:type="star" />
      <path
         sodipodi:type="star"
         style="fill:#ff8342;fill-opacity:1;stroke:none"
         id="path3800"
         sodipodi:sides="5"
         sodipodi:cx="375.71429"
         sodipodi:cy="243.79076"
         sodipodi:r1="44.354786"
         sodipodi:r2="22.177393"
         sodipodi:arg1="1.8313987"
         sodipodi:arg2="2.4597172"
         inkscape:flatsided="false"
         inkscape:rounded="0"
         inkscape:randomized="0"
         d="m 364.28572,286.6479 -5.78978,-28.87984 -27.07283,-11.60293 25.67721,-14.43077 2.66909,-29.33331 21.65917,19.96113 28.72242,-6.52604 -12.29111,26.76743 15.08235,25.29999 -29.2555,-3.41795 z"
         inkscape:transform-center-x="-1.417495"
         inkscape:transform-center-y="0.4491219"
         transform="matrix(0.31748029,0.29992513,-0.29992513,0.31748029,-260.70547,190.37898)" />
      <path
         transform="matrix(0.50616291,0.13231275,-0.13231275,0.50616291,-440.23466,174.02063)"
         inkscape:transform-center-y="-1.4395561"
         inkscape:transform-center-x="0.80168759"
         d="m 364.28572,286.6479 -5.78978,-28.87984 -27.07283,-11.60293 25.67721,-14.43077 2.66909,-29.33331 21.65917,19.96113 28.72242,-6.52604 -12.29111,26.76743 15.08235,25.29999 -29.2555,-3.41795 z"
         inkscape:randomized="0"
         inkscape:rounded="0"
         inkscape:flatsided="false"
         sodipodi:arg2="2.4597172"
         sodipodi:arg1="1.8313987"
         sodipodi:r2="22.177393"
         sodipodi:r1="44.354786"
         sodipodi:cy="243.79076"
         sodipodi:cx="375.71429"
         sodipodi:sides="5"
         id="path3802"
         style="fill:#ff8342;fill-opacity:1;stroke:none"
         sodipodi:type="star" />
      <path
         sodipodi:type="star"
         style="fill:#ff8342;fill-opacity:1;stroke:none"
         id="path3804"
         sodipodi:sides="5"
         sodipodi:cx="375.71429"
         sodipodi:cy="243.79076"
         sodipodi:r1="44.354786"
         sodipodi:r2="22.177393"
         sodipodi:arg1="1.8313987"
         sodipodi:arg2="2.4597172"
         inkscape:flatsided="false"
         inkscape:rounded="0"
         inkscape:randomized="0"
         d="m 364.28572,286.6479 -5.78978,-28.87984 -27.07283,-11.60293 25.67721,-14.43077 2.66909,-29.33331 21.65917,19.96113 28.72242,-6.52604 -12.29111,26.76743 15.08235,25.29999 -29.2555,-3.41795 z"
         inkscape:transform-center-x="0.029321338"
         inkscape:transform-center-y="2.1984968"
         transform="matrix(0.03027446,-0.52477891,0.52477891,0.03027446,-414.74153,607.73551)" />
      <path
         transform="matrix(0.31054585,-0.16146846,0.16146846,0.31054585,-333.89691,334.74981)"
         inkscape:transform-center-y="0.4564119"
         inkscape:transform-center-x="-1.0416881"
         d="m 364.28572,286.6479 -5.78978,-28.87984 -27.07283,-11.60293 25.67721,-14.43077 2.66909,-29.33331 21.65917,19.96113 28.72242,-6.52604 -12.29111,26.76743 15.08235,25.29999 -29.2555,-3.41795 z"
         inkscape:randomized="0"
         inkscape:rounded="0"
         inkscape:flatsided="false"
         sodipodi:arg2="2.4597172"
         sodipodi:arg1="1.8313987"
         sodipodi:r2="22.177393"
         sodipodi:r1="44.354786"
         sodipodi:cy="243.79076"
         sodipodi:cx="375.71429"
         sodipodi:sides="5"
         id="path3806"
         style="fill:#ff8342;fill-opacity:1;stroke:none"
         sodipodi:type="star" />
      <path
         sodipodi:type="star"
         style="fill:#ff8342;fill-opacity:1;stroke:none"
         id="path3808"
         sodipodi:sides="5"
         sodipodi:cx="375.71429"
         sodipodi:cy="243.79076"
         sodipodi:r1="44.354786"
         sodipodi:r2="22.177393"
         sodipodi:arg1="1.8313987"
         sodipodi:arg2="2.4597172"
         inkscape:flatsided="false"
         inkscape:rounded="0"
         inkscape:randomized="0"
         d="m 364.28572,286.6479 -5.78978,-28.87984 -27.07283,-11.60293 25.67721,-14.43077 2.66909,-29.33331 21.65917,19.96113 28.72242,-6.52604 -12.29111,26.76743 15.08235,25.29999 -29.2555,-3.41795 z"
         inkscape:transform-center-x="-1.1789657"
         inkscape:transform-center-y="0.2349327"
         transform="matrix(0.28722343,-0.16561457,0.16561457,0.28722343,-361.02917,426.87948)" />
      <path
         sodipodi:type="star"
         style="fill:#ffffff;fill-opacity:1;stroke:#ff1112;stroke-width:8.89999962;stroke-miterlimit:4;stroke-opacity:1;stroke-dasharray:none"
         id="path3810"
         sodipodi:sides="5"
         sodipodi:cx="375.71429"
         sodipodi:cy="243.79076"
         sodipodi:r1="44.354786"
         sodipodi:r2="22.177393"
         sodipodi:arg1="1.8313987"
         sodipodi:arg2="2.4597172"
         inkscape:flatsided="false"
         inkscape:rounded="0"
         inkscape:randomized="0"
         d="m 364.28572,286.6479 -5.78978,-28.87984 -27.07283,-11.60293 25.67721,-14.43077 2.66909,-29.33331 21.65917,19.96113 28.72242,-6.52604 -12.29111,26.76743 15.08235,25.29999 -29.2555,-3.41795 z"
         inkscape:transform-center-x="0.60562125"
         inkscape:transform-center-y="3.655396"
         transform="matrix(0.97667615,-0.2147177,0.2147177,0.97667615,-403.58309,-19.355633)" />
    </g>
    <flowRoot
       xml:space="preserve"
       id="flowRoot3834"
       style="font-size:40px;font-style:normal;font-weight:normal;line-height:125%;letter-spacing:0px;word-spacing:0px;fill:#000000;fill-opacity:1;stroke:none;font-family:American Typewriter;-inkscape-font-specification:American Typewriter;font-stretch:normal;font-variant:normal"
       transform="translate(24,0)"><flowRegion
         id="flowRegion3836"><rect
           id="rect3838"
           width="138"
           height="72"
           x="72"
           y="18.362183"
           style="-inkscape-font-specification:American Typewriter;font-family:American Typewriter;font-weight:normal;font-style:normal;font-stretch:normal;font-variant:normal" /></flowRegion><flowPara
         id="flowPara3840">red</flowPara></flowRoot>    <flowRoot
       transform="translate(-20,558)"
       style="font-size:40px;font-style:normal;font-variant:normal;font-weight:normal;font-stretch:normal;line-height:125%;letter-spacing:0px;word-spacing:0px;fill:#000000;fill-opacity:1;stroke:none;font-family:American Typewriter;-inkscape-font-specification:American Typewriter"
       id="flowRoot3842"
       xml:space="preserve"><flowRegion
         id="flowRegion3844"><rect
           style="font-style:normal;font-variant:normal;font-weight:normal;font-stretch:normal;font-family:American Typewriter;-inkscape-font-specification:American Typewriter"
           y="18.362183"
           x="72"
           height="74"
           width="192"
           id="rect3846" /></flowRegion><flowPara
         id="flowPara3848">dark red </flowPara></flowRoot>    <rect
       style="fill:none;stroke:none"
       id="rect3854"
       width="30.13463"
       height="30.134632"
       x="627.98267"
       y="599.74487"
       rx="0"
       ry="0"
       inkscape:export-filename="/Users/audreyr/code/auditionrocket/ar/assets/img/favicon.png"
       inkscape:export-xdpi="95.57"
       inkscape:export-ydpi="95.57" />
    <g
       id="g3856"
       transform="matrix(0.06960816,0,0,0.06960816,617.31134,558.83928)"
       inkscape:export-filename="/Users/audreyr/code/auditionrocket/ar/assets/img/favicon.png"
       inkscape:export-xdpi="95.57"
       inkscape:export-ydpi="95.57">
      <path
         style="fill:#ff8342;fill-opacity:1;stroke:none"
         d="m 578.57142,609.50504 c 0,0 -117.14285,-20 -194.28571,57.14285 -77.14286,77.14286 -111.42857,157.14286 -111.42857,157.14286 l 74.28571,65.71429 c 0,0 132.36809,-50.39039 185.71429,-142.85714 42.85714,-74.28572 45.71428,-137.14286 45.71428,-137.14286 z"
         id="path3858"
         inkscape:connector-curvature="0"
         sodipodi:nodetypes="csccsc"
         inkscape:export-filename="/Users/audreyr/code/auditionrocket/ar/assets/img/rocket_orange_darkred_53x50.png"
         inkscape:export-xdpi="11.222174"
         inkscape:export-ydpi="11.222174" />
      <path
         style="fill:#d11112;fill-opacity:1;stroke:none"
         d="m 300,846.64789 c 0,0 12.85714,-69.99999 -30,-84.28571 -42.85715,-14.28571 -107.14286,62.85714 -107.14286,62.85714 0,0 67.82573,-19.61875 85.71428,-4.28571 30,25.71428 17.14286,62.85714 17.14286,62.85714 0,0 61.42857,-18.57143 64.28571,15.71429 2.85715,34.28571 -12.85714,81.42857 -12.85714,81.42857 0,0 68.57143,-40.00001 68.57143,-88.57143 C 385.71428,843.79075 300,846.64789 300,846.64789 z"
         id="path3860"
         inkscape:connector-curvature="0"
         sodipodi:nodetypes="cscscscsc"
         inkscape:export-filename="/Users/audreyr/code/auditionrocket/ar/assets/img/rocket_orange_darkred_53x50.png"
         inkscape:export-xdpi="11.222174"
         inkscape:export-ydpi="11.222174" />
      <path
         transform="matrix(0.43280503,-0.05855446,0.05855446,0.43280503,58.57136,794.09263)"
         inkscape:transform-center-y="1.1189745"
         inkscape:transform-center-x="0.75303105"
         d="m 364.28572,286.6479 -5.78978,-28.87984 -27.07283,-11.60293 25.67721,-14.43077 2.66909,-29.33331 21.65917,19.96113 28.72242,-6.52604 -12.29111,26.76743 15.08235,25.29999 -29.2555,-3.41795 z"
         inkscape:randomized="0"
         inkscape:rounded="0"
         inkscape:flatsided="false"
         sodipodi:arg2="2.4597172"
         sodipodi:arg1="1.8313987"
         sodipodi:r2="22.177393"
         sodipodi:r1="44.354786"
         sodipodi:cy="243.79076"
         sodipodi:cx="375.71429"
         sodipodi:sides="5"
         id="path3862"
         style="fill:#ff8342;fill-opacity:1;stroke:none"
         sodipodi:type="star"
         inkscape:export-filename="/Users/audreyr/code/auditionrocket/ar/assets/img/rocket_orange_darkred_53x50.png"
         inkscape:export-xdpi="11.222174"
         inkscape:export-ydpi="11.222174" />
      <path
         sodipodi:type="star"
         style="fill:#ff8342;fill-opacity:1;stroke:none"
         id="path3864"
         sodipodi:sides="5"
         sodipodi:cx="375.71429"
         sodipodi:cy="243.79076"
         sodipodi:r1="44.354786"
         sodipodi:r2="22.177393"
         sodipodi:arg1="1.8313987"
         sodipodi:arg2="2.4597172"
         inkscape:flatsided="false"
         inkscape:rounded="0"
         inkscape:randomized="0"
         d="m 364.28572,286.6479 -5.78978,-28.87984 -27.07283,-11.60293 25.67721,-14.43077 2.66909,-29.33331 21.65917,19.96113 28.72242,-6.52604 -12.29111,26.76743 15.08235,25.29999 -29.2555,-3.41795 z"
         inkscape:transform-center-x="-1.417495"
         inkscape:transform-center-y="0.4491219"
         transform="matrix(0.31748029,0.29992513,-0.29992513,0.31748029,197.86595,747.52183)"
         inkscape:export-filename="/Users/audreyr/code/auditionrocket/ar/assets/img/rocket_orange_darkred_53x50.png"
         inkscape:export-xdpi="11.222174"
         inkscape:export-ydpi="11.222174" />
      <path
         transform="matrix(0.50616291,0.13231275,-0.13231275,0.50616291,18.336773,731.16348)"
         inkscape:transform-center-y="-1.4395561"
         inkscape:transform-center-x="0.80168759"
         d="m 364.28572,286.6479 -5.78978,-28.87984 -27.07283,-11.60293 25.67721,-14.43077 2.66909,-29.33331 21.65917,19.96113 28.72242,-6.52604 -12.29111,26.76743 15.08235,25.29999 -29.2555,-3.41795 z"
         inkscape:randomized="0"
         inkscape:rounded="0"
         inkscape:flatsided="false"
         sodipodi:arg2="2.4597172"
         sodipodi:arg1="1.8313987"
         sodipodi:r2="22.177393"
         sodipodi:r1="44.354786"
         sodipodi:cy="243.79076"
         sodipodi:cx="375.71429"
         sodipodi:sides="5"
         id="path3866"
         style="fill:#ff8342;fill-opacity:1;stroke:none"
         sodipodi:type="star"
         inkscape:export-filename="/Users/audreyr/code/auditionrocket/ar/assets/img/rocket_orange_darkred_53x50.png"
         inkscape:export-xdpi="11.222174"
         inkscape:export-ydpi="11.222174" />
      <path
         sodipodi:type="star"
         style="fill:#ff8342;fill-opacity:1;stroke:none"
         id="path3868"
         sodipodi:sides="5"
         sodipodi:cx="375.71429"
         sodipodi:cy="243.79076"
         sodipodi:r1="44.354786"
         sodipodi:r2="22.177393"
         sodipodi:arg1="1.8313987"
         sodipodi:arg2="2.4597172"
         inkscape:flatsided="false"
         inkscape:rounded="0"
         inkscape:randomized="0"
         d="m 364.28572,286.6479 -5.78978,-28.87984 -27.07283,-11.60293 25.67721,-14.43077 2.66909,-29.33331 21.65917,19.96113 28.72242,-6.52604 -12.29111,26.76743 15.08235,25.29999 -29.2555,-3.41795 z"
         inkscape:transform-center-x="0.029321338"
         inkscape:transform-center-y="2.1984968"
         transform="matrix(0.03027446,-0.52477891,0.52477891,0.03027446,43.829898,1164.8784)"
         inkscape:export-filename="/Users/audreyr/code/auditionrocket/ar/assets/img/rocket_orange_darkred_53x50.png"
         inkscape:export-xdpi="11.222174"
         inkscape:export-ydpi="11.222174" />
      <path
         transform="matrix(0.31054585,-0.16146846,0.16146846,0.31054585,124.67452,891.89266)"
         inkscape:transform-center-y="0.4564119"
         inkscape:transform-center-x="-1.0416881"
         d="m 364.28572,286.6479 -5.78978,-28.87984 -27.07283,-11.60293 25.67721,-14.43077 2.66909,-29.33331 21.65917,19.96113 28.72242,-6.52604 -12.29111,26.76743 15.08235,25.29999 -29.2555,-3.41795 z"
         inkscape:randomized="0"
         inkscape:rounded="0"
         inkscape:flatsided="false"
         sodipodi:arg2="2.4597172"
         sodipodi:arg1="1.8313987"
         sodipodi:r2="22.177393"
         sodipodi:r1="44.354786"
         sodipodi:cy="243.79076"
         sodipodi:cx="375.71429"
         sodipodi:sides="5"
         id="path3870"
         style="fill:#ff8342;fill-opacity:1;stroke:none"
         sodipodi:type="star"
         inkscape:export-filename="/Users/audreyr/code/auditionrocket/ar/assets/img/rocket_orange_darkred_53x50.png"
         inkscape:export-xdpi="11.222174"
         inkscape:export-ydpi="11.222174" />
      <path
         sodipodi:type="star"
         style="fill:#ff8342;fill-opacity:1;stroke:none"
         id="path3872"
         sodipodi:sides="5"
         sodipodi:cx="375.71429"
         sodipodi:cy="243.79076"
         sodipodi:r1="44.354786"
         sodipodi:r2="22.177393"
         sodipodi:arg1="1.8313987"
         sodipodi:arg2="2.4597172"
         inkscape:flatsided="false"
         inkscape:rounded="0"
         inkscape:randomized="0"
         d="m 364.28572,286.6479 -5.78978,-28.87984 -27.07283,-11.60293 25.67721,-14.43077 2.66909,-29.33331 21.65917,19.96113 28.72242,-6.52604 -12.29111,26.76743 15.08235,25.29999 -29.2555,-3.41795 z"
         inkscape:transform-center-x="-1.1789657"
         inkscape:transform-center-y="0.2349327"
         transform="matrix(0.28722343,-0.16561457,0.16561457,0.28722343,97.542257,984.02233)"
         inkscape:export-filename="/Users/audreyr/code/auditionrocket/ar/assets/img/rocket_orange_darkred_53x50.png"
         inkscape:export-xdpi="11.222174"
         inkscape:export-ydpi="11.222174" />
      <path
         sodipodi:type="star"
         style="fill:#ffffff;fill-opacity:1;stroke:#d11112;stroke-width:8.89999962;stroke-miterlimit:4;stroke-opacity:1;stroke-dasharray:none"
         id="path3874"
         sodipodi:sides="5"
         sodipodi:cx="375.71429"
         sodipodi:cy="243.79076"
         sodipodi:r1="44.354786"
         sodipodi:r2="22.177393"
         sodipodi:arg1="1.8313987"
         sodipodi:arg2="2.4597172"
         inkscape:flatsided="false"
         inkscape:rounded="0"
         inkscape:randomized="0"
         d="m 364.28572,286.6479 -5.78978,-28.87984 -27.07283,-11.60293 25.67721,-14.43077 2.66909,-29.33331 21.65917,19.96113 28.72242,-6.52604 -12.29111,26.76743 15.08235,25.29999 -29.2555,-3.41795 z"
         inkscape:transform-center-x="0.60562125"
         inkscape:transform-center-y="3.655396"
         transform="matrix(0.97667615,-0.2147177,0.2147177,0.97667615,54.988339,537.78722)"
         inkscape:export-filename="/Users/audreyr/code/auditionrocket/ar/assets/img/rocket_orange_darkred_53x50.png"
         inkscape:export-xdpi="11.222174"
         inkscape:export-ydpi="11.222174" />
    </g>
    <rect
       style="fill:#f2f2f2;stroke:none"
       id="rect3876"
       width="160"
       height="200"
       x="560"
       y="222.36217"
       inkscape:export-filename="/Users/audreyr/code/auditionrocket/ar/assets/img/no-headshot-available.png"
       inkscape:export-xdpi="95.57"
       inkscape:export-ydpi="95.57" />
    <g
       id="g3878"
       transform="matrix(0.17833989,0,0,0.17833989,583.20225,353.25385)">
      <path
         style="fill:#ff8342;fill-opacity:1;stroke:none"
         d="m 578.57142,609.50504 c 0,0 -117.14285,-20 -194.28571,57.14285 -77.14286,77.14286 -111.42857,157.14286 -111.42857,157.14286 l 74.28571,65.71429 c 0,0 132.36809,-50.39039 185.71429,-142.85714 42.85714,-74.28572 45.71428,-137.14286 45.71428,-137.14286 z"
         id="path3880"
         inkscape:connector-curvature="0"
         sodipodi:nodetypes="csccsc"
         inkscape:export-filename="/Users/audreyr/code/auditionrocket/ar/assets/img/rocket_orange_darkred_53x50.png"
         inkscape:export-xdpi="11.222174"
         inkscape:export-ydpi="11.222174" />
      <path
         style="fill:#d11112;fill-opacity:1;stroke:none"
         d="m 300,846.64789 c 0,0 12.85714,-69.99999 -30,-84.28571 -42.85715,-14.28571 -107.14286,62.85714 -107.14286,62.85714 0,0 67.82573,-19.61875 85.71428,-4.28571 30,25.71428 17.14286,62.85714 17.14286,62.85714 0,0 61.42857,-18.57143 64.28571,15.71429 2.85715,34.28571 -12.85714,81.42857 -12.85714,81.42857 0,0 68.57143,-40.00001 68.57143,-88.57143 C 385.71428,843.79075 300,846.64789 300,846.64789 z"
         id="path3882"
         inkscape:connector-curvature="0"
         sodipodi:nodetypes="cscscscsc"
         inkscape:export-filename="/Users/audreyr/code/auditionrocket/ar/assets/img/rocket_orange_darkred_53x50.png"
         inkscape:export-xdpi="11.222174"
         inkscape:export-ydpi="11.222174" />
      <path
         transform="matrix(0.43280503,-0.05855446,0.05855446,0.43280503,58.57136,794.09263)"
         inkscape:transform-center-y="1.1189745"
         inkscape:transform-center-x="0.75303105"
         d="m 364.28572,286.6479 -5.78978,-28.87984 -27.07283,-11.60293 25.67721,-14.43077 2.66909,-29.33331 21.65917,19.96113 28.72242,-6.52604 -12.29111,26.76743 15.08235,25.29999 -29.2555,-3.41795 z"
         inkscape:randomized="0"
         inkscape:rounded="0"
         inkscape:flatsided="false"
         sodipodi:arg2="2.4597172"
         sodipodi:arg1="1.8313987"
         sodipodi:r2="22.177393"
         sodipodi:r1="44.354786"
         sodipodi:cy="243.79076"
         sodipodi:cx="375.71429"
         sodipodi:sides="5"
         id="path3884"
         style="fill:#ff8342;fill-opacity:1;stroke:none"
         sodipodi:type="star"
         inkscape:export-filename="/Users/audreyr/code/auditionrocket/ar/assets/img/rocket_orange_darkred_53x50.png"
         inkscape:export-xdpi="11.222174"
         inkscape:export-ydpi="11.222174" />
      <path
         sodipodi:type="star"
         style="fill:#ff8342;fill-opacity:1;stroke:none"
         id="path3886"
         sodipodi:sides="5"
         sodipodi:cx="375.71429"
         sodipodi:cy="243.79076"
         sodipodi:r1="44.354786"
         sodipodi:r2="22.177393"
         sodipodi:arg1="1.8313987"
         sodipodi:arg2="2.4597172"
         inkscape:flatsided="false"
         inkscape:rounded="0"
         inkscape:randomized="0"
         d="m 364.28572,286.6479 -5.78978,-28.87984 -27.07283,-11.60293 25.67721,-14.43077 2.66909,-29.33331 21.65917,19.96113 28.72242,-6.52604 -12.29111,26.76743 15.08235,25.29999 -29.2555,-3.41795 z"
         inkscape:transform-center-x="-1.417495"
         inkscape:transform-center-y="0.4491219"
         transform="matrix(0.31748029,0.29992513,-0.29992513,0.31748029,197.86595,747.52183)"
         inkscape:export-filename="/Users/audreyr/code/auditionrocket/ar/assets/img/rocket_orange_darkred_53x50.png"
         inkscape:export-xdpi="11.222174"
         inkscape:export-ydpi="11.222174" />
      <path
         transform="matrix(0.50616291,0.13231275,-0.13231275,0.50616291,18.336773,731.16348)"
         inkscape:transform-center-y="-1.4395561"
         inkscape:transform-center-x="0.80168759"
         d="m 364.28572,286.6479 -5.78978,-28.87984 -27.07283,-11.60293 25.67721,-14.43077 2.66909,-29.33331 21.65917,19.96113 28.72242,-6.52604 -12.29111,26.76743 15.08235,25.29999 -29.2555,-3.41795 z"
         inkscape:randomized="0"
         inkscape:rounded="0"
         inkscape:flatsided="false"
         sodipodi:arg2="2.4597172"
         sodipodi:arg1="1.8313987"
         sodipodi:r2="22.177393"
         sodipodi:r1="44.354786"
         sodipodi:cy="243.79076"
         sodipodi:cx="375.71429"
         sodipodi:sides="5"
         id="path3888"
         style="fill:#ff8342;fill-opacity:1;stroke:none"
         sodipodi:type="star"
         inkscape:export-filename="/Users/audreyr/code/auditionrocket/ar/assets/img/rocket_orange_darkred_53x50.png"
         inkscape:export-xdpi="11.222174"
         inkscape:export-ydpi="11.222174" />
      <path
         sodipodi:type="star"
         style="fill:#ff8342;fill-opacity:1;stroke:none"
         id="path3890"
         sodipodi:sides="5"
         sodipodi:cx="375.71429"
         sodipodi:cy="243.79076"
         sodipodi:r1="44.354786"
         sodipodi:r2="22.177393"
         sodipodi:arg1="1.8313987"
         sodipodi:arg2="2.4597172"
         inkscape:flatsided="false"
         inkscape:rounded="0"
         inkscape:randomized="0"
         d="m 364.28572,286.6479 -5.78978,-28.87984 -27.07283,-11.60293 25.67721,-14.43077 2.66909,-29.33331 21.65917,19.96113 28.72242,-6.52604 -12.29111,26.76743 15.08235,25.29999 -29.2555,-3.41795 z"
         inkscape:transform-center-x="0.029321338"
         inkscape:transform-center-y="2.1984968"
         transform="matrix(0.03027446,-0.52477891,0.52477891,0.03027446,43.829898,1164.8784)"
         inkscape:export-filename="/Users/audreyr/code/auditionrocket/ar/assets/img/rocket_orange_darkred_53x50.png"
         inkscape:export-xdpi="11.222174"
         inkscape:export-ydpi="11.222174" />
      <path
         transform="matrix(0.31054585,-0.16146846,0.16146846,0.31054585,124.67452,891.89266)"
         inkscape:transform-center-y="0.4564119"
         inkscape:transform-center-x="-1.0416881"
         d="m 364.28572,286.6479 -5.78978,-28.87984 -27.07283,-11.60293 25.67721,-14.43077 2.66909,-29.33331 21.65917,19.96113 28.72242,-6.52604 -12.29111,26.76743 15.08235,25.29999 -29.2555,-3.41795 z"
         inkscape:randomized="0"
         inkscape:rounded="0"
         inkscape:flatsided="false"
         sodipodi:arg2="2.4597172"
         sodipodi:arg1="1.8313987"
         sodipodi:r2="22.177393"
         sodipodi:r1="44.354786"
         sodipodi:cy="243.79076"
         sodipodi:cx="375.71429"
         sodipodi:sides="5"
         id="path3892"
         style="fill:#ff8342;fill-opacity:1;stroke:none"
         sodipodi:type="star"
         inkscape:export-filename="/Users/audreyr/code/auditionrocket/ar/assets/img/rocket_orange_darkred_53x50.png"
         inkscape:export-xdpi="11.222174"
         inkscape:export-ydpi="11.222174" />
      <path
         sodipodi:type="star"
         style="fill:#ff8342;fill-opacity:1;stroke:none"
         id="path3894"
         sodipodi:sides="5"
         sodipodi:cx="375.71429"
         sodipodi:cy="243.79076"
         sodipodi:r1="44.354786"
         sodipodi:r2="22.177393"
         sodipodi:arg1="1.8313987"
         sodipodi:arg2="2.4597172"
         inkscape:flatsided="false"
         inkscape:rounded="0"
         inkscape:randomized="0"
         d="m 364.28572,286.6479 -5.78978,-28.87984 -27.07283,-11.60293 25.67721,-14.43077 2.66909,-29.33331 21.65917,19.96113 28.72242,-6.52604 -12.29111,26.76743 15.08235,25.29999 -29.2555,-3.41795 z"
         inkscape:transform-center-x="-1.1789657"
         inkscape:transform-center-y="0.2349327"
         transform="matrix(0.28722343,-0.16561457,0.16561457,0.28722343,97.542257,984.02233)"
         inkscape:export-filename="/Users/audreyr/code/auditionrocket/ar/assets/img/rocket_orange_darkred_53x50.png"
         inkscape:export-xdpi="11.222174"
         inkscape:export-ydpi="11.222174" />
      <path
         sodipodi:type="star"
         style="fill:#ffffff;fill-opacity:1;stroke:#d11112;stroke-width:8.89999962;stroke-miterlimit:4;stroke-opacity:1;stroke-dasharray:none"
         id="path3896"
         sodipodi:sides="5"
         sodipodi:cx="375.71429"
         sodipodi:cy="243.79076"
         sodipodi:r1="44.354786"
         sodipodi:r2="22.177393"
         sodipodi:arg1="1.8313987"
         sodipodi:arg2="2.4597172"
         inkscape:flatsided="false"
         inkscape:rounded="0"
         inkscape:randomized="0"
         d="m 364.28572,286.6479 -5.78978,-28.87984 -27.07283,-11.60293 25.67721,-14.43077 2.66909,-29.33331 21.65917,19.96113 28.72242,-6.52604 -12.29111,26.76743 15.08235,25.29999 -29.2555,-3.41795 z"
         inkscape:transform-center-x="0.60562125"
         inkscape:transform-center-y="3.655396"
         transform="matrix(0.97667615,-0.2147177,0.2147177,0.97667615,54.988339,537.78722)"
         inkscape:export-filename="/Users/audreyr/code/auditionrocket/ar/assets/img/rocket_orange_darkred_53x50.png"
         inkscape:export-xdpi="11.222174"
         inkscape:export-ydpi="11.222174" />
    </g>
    <flowRoot
       transform="matrix(0.67028737,0,0,0.67028737,490.96595,234.02174)"
       style="font-size:40px;font-style:normal;font-variant:normal;font-weight:normal;font-stretch:normal;line-height:125%;letter-spacing:0px;word-spacing:0px;fill:#b3b3b3;fill-opacity:1;stroke:none;font-family:American Typewriter;-inkscape-font-specification:American Typewriter"
       id="flowRoot3898"
       xml:space="preserve"
       inkscape:export-filename="/Users/audreyr/code/auditionrocket/ar/assets/img/no-headshot-available.png"
       inkscape:export-xdpi="95.57"
       inkscape:export-ydpi="95.57"><flowRegion
         id="flowRegion3900"><rect
           style="font-style:normal;font-variant:normal;font-weight:normal;font-stretch:normal;fill:#b3b3b3;font-family:American Typewriter;-inkscape-font-specification:American Typewriter"
           y="18.362183"
           x="72"
           height="294.59039"
           width="302.56918"
           id="rect3902" /></flowRegion><flowPara
         id="flowPara3906"
         style="font-size:35.80553818px;font-style:italic;font-variant:normal;font-weight:normal;font-stretch:normal;text-align:center;text-anchor:middle;fill:#b3b3b3;font-family:Crimson;-inkscape-font-specification:Crimson Italic">no headshot</flowPara><flowPara
         id="flowPara3908"
         style="font-size:35.80553818px;font-style:italic;font-variant:normal;font-weight:normal;font-stretch:normal;text-align:center;text-anchor:middle;fill:#b3b3b3;font-family:Crimson;-inkscape-font-specification:Crimson Italic">available</flowPara></flowRoot>    <g
       transform="matrix(0.17833989,0,0,0.17833989,574.89003,215.45844)"
       id="g3038"
       style="fill:#ffffff"
       inkscape:export-filename="/Users/audreyr/code/auditionrocket/ar/assets/img/no-headshot-available.png"
       inkscape:export-xdpi="95.57"
       inkscape:export-ydpi="95.57">
      <path
         inkscape:export-ydpi="11.222174"
         inkscape:export-xdpi="11.222174"
         inkscape:export-filename="/Users/audreyr/code/auditionrocket/ar/assets/img/rocket_orange_darkred_53x50.png"
         sodipodi:nodetypes="csccsc"
         inkscape:connector-curvature="0"
         id="path3040"
         d="m 578.57142,609.50504 c 0,0 -117.14285,-20 -194.28571,57.14285 -77.14286,77.14286 -111.42857,157.14286 -111.42857,157.14286 l 74.28571,65.71429 c 0,0 132.36809,-50.39039 185.71429,-142.85714 42.85714,-74.28572 45.71428,-137.14286 45.71428,-137.14286 z"
         style="fill:#ffffff;fill-opacity:1;stroke:none" />
      <path
         inkscape:export-ydpi="11.222174"
         inkscape:export-xdpi="11.222174"
         inkscape:export-filename="/Users/audreyr/code/auditionrocket/ar/assets/img/rocket_orange_darkred_53x50.png"
         sodipodi:nodetypes="cscscscsc"
         inkscape:connector-curvature="0"
         id="path3042"
         d="m 300,846.64789 c 0,0 12.85714,-69.99999 -30,-84.28571 -42.85715,-14.28571 -107.14286,62.85714 -107.14286,62.85714 0,0 67.82573,-19.61875 85.71428,-4.28571 30,25.71428 17.14286,62.85714 17.14286,62.85714 0,0 61.42857,-18.57143 64.28571,15.71429 2.85715,34.28571 -12.85714,81.42857 -12.85714,81.42857 0,0 68.57143,-40.00001 68.57143,-88.57143 C 385.71428,843.79075 300,846.64789 300,846.64789 z"
         style="fill:#ffffff;fill-opacity:1;stroke:none" />
      <path
         inkscape:export-ydpi="11.222174"
         inkscape:export-xdpi="11.222174"
         inkscape:export-filename="/Users/audreyr/code/auditionrocket/ar/assets/img/rocket_orange_darkred_53x50.png"
         sodipodi:type="star"
         style="fill:#ffffff;fill-opacity:1;stroke:none"
         id="path3044"
         sodipodi:sides="5"
         sodipodi:cx="375.71429"
         sodipodi:cy="243.79076"
         sodipodi:r1="44.354786"
         sodipodi:r2="22.177393"
         sodipodi:arg1="1.8313987"
         sodipodi:arg2="2.4597172"
         inkscape:flatsided="false"
         inkscape:rounded="0"
         inkscape:randomized="0"
         d="m 364.28572,286.6479 -5.78978,-28.87984 -27.07283,-11.60293 25.67721,-14.43077 2.66909,-29.33331 21.65917,19.96113 28.72242,-6.52604 -12.29111,26.76743 15.08235,25.29999 -29.2555,-3.41795 z"
         inkscape:transform-center-x="0.75303105"
         inkscape:transform-center-y="1.1189745"
         transform="matrix(0.43280503,-0.05855446,0.05855446,0.43280503,58.57136,794.09263)" />
      <path
         inkscape:export-ydpi="11.222174"
         inkscape:export-xdpi="11.222174"
         inkscape:export-filename="/Users/audreyr/code/auditionrocket/ar/assets/img/rocket_orange_darkred_53x50.png"
         transform="matrix(0.31748029,0.29992513,-0.29992513,0.31748029,197.86595,747.52183)"
         inkscape:transform-center-y="0.4491219"
         inkscape:transform-center-x="-1.417495"
         d="m 364.28572,286.6479 -5.78978,-28.87984 -27.07283,-11.60293 25.67721,-14.43077 2.66909,-29.33331 21.65917,19.96113 28.72242,-6.52604 -12.29111,26.76743 15.08235,25.29999 -29.2555,-3.41795 z"
         inkscape:randomized="0"
         inkscape:rounded="0"
         inkscape:flatsided="false"
         sodipodi:arg2="2.4597172"
         sodipodi:arg1="1.8313987"
         sodipodi:r2="22.177393"
         sodipodi:r1="44.354786"
         sodipodi:cy="243.79076"
         sodipodi:cx="375.71429"
         sodipodi:sides="5"
         id="path3046"
         style="fill:#ffffff;fill-opacity:1;stroke:none"
         sodipodi:type="star" />
      <path
         inkscape:export-ydpi="11.222174"
         inkscape:export-xdpi="11.222174"
         inkscape:export-filename="/Users/audreyr/code/auditionrocket/ar/assets/img/rocket_orange_darkred_53x50.png"
         sodipodi:type="star"
         style="fill:#ffffff;fill-opacity:1;stroke:none"
         id="path3048"
         sodipodi:sides="5"
         sodipodi:cx="375.71429"
         sodipodi:cy="243.79076"
         sodipodi:r1="44.354786"
         sodipodi:r2="22.177393"
         sodipodi:arg1="1.8313987"
         sodipodi:arg2="2.4597172"
         inkscape:flatsided="false"
         inkscape:rounded="0"
         inkscape:randomized="0"
         d="m 364.28572,286.6479 -5.78978,-28.87984 -27.07283,-11.60293 25.67721,-14.43077 2.66909,-29.33331 21.65917,19.96113 28.72242,-6.52604 -12.29111,26.76743 15.08235,25.29999 -29.2555,-3.41795 z"
         inkscape:transform-center-x="0.80168759"
         inkscape:transform-center-y="-1.4395561"
         transform="matrix(0.50616291,0.13231275,-0.13231275,0.50616291,18.336773,731.16348)" />
      <path
         inkscape:export-ydpi="11.222174"
         inkscape:export-xdpi="11.222174"
         inkscape:export-filename="/Users/audreyr/code/auditionrocket/ar/assets/img/rocket_orange_darkred_53x50.png"
         transform="matrix(0.03027446,-0.52477891,0.52477891,0.03027446,43.829898,1164.8784)"
         inkscape:transform-center-y="2.1984968"
         inkscape:transform-center-x="0.029321338"
         d="m 364.28572,286.6479 -5.78978,-28.87984 -27.07283,-11.60293 25.67721,-14.43077 2.66909,-29.33331 21.65917,19.96113 28.72242,-6.52604 -12.29111,26.76743 15.08235,25.29999 -29.2555,-3.41795 z"
         inkscape:randomized="0"
         inkscape:rounded="0"
         inkscape:flatsided="false"
         sodipodi:arg2="2.4597172"
         sodipodi:arg1="1.8313987"
         sodipodi:r2="22.177393"
         sodipodi:r1="44.354786"
         sodipodi:cy="243.79076"
         sodipodi:cx="375.71429"
         sodipodi:sides="5"
         id="path3050"
         style="fill:#ffffff;fill-opacity:1;stroke:none"
         sodipodi:type="star" />
      <path
         inkscape:export-ydpi="11.222174"
         inkscape:export-xdpi="11.222174"
         inkscape:export-filename="/Users/audreyr/code/auditionrocket/ar/assets/img/rocket_orange_darkred_53x50.png"
         sodipodi:type="star"
         style="fill:#ffffff;fill-opacity:1;stroke:none"
         id="path3052"
         sodipodi:sides="5"
         sodipodi:cx="375.71429"
         sodipodi:cy="243.79076"
         sodipodi:r1="44.354786"
         sodipodi:r2="22.177393"
         sodipodi:arg1="1.8313987"
         sodipodi:arg2="2.4597172"
         inkscape:flatsided="false"
         inkscape:rounded="0"
         inkscape:randomized="0"
         d="m 364.28572,286.6479 -5.78978,-28.87984 -27.07283,-11.60293 25.67721,-14.43077 2.66909,-29.33331 21.65917,19.96113 28.72242,-6.52604 -12.29111,26.76743 15.08235,25.29999 -29.2555,-3.41795 z"
         inkscape:transform-center-x="-1.0416881"
         inkscape:transform-center-y="0.4564119"
         transform="matrix(0.31054585,-0.16146846,0.16146846,0.31054585,124.67452,891.89266)" />
      <path
         inkscape:export-ydpi="11.222174"
         inkscape:export-xdpi="11.222174"
         inkscape:export-filename="/Users/audreyr/code/auditionrocket/ar/assets/img/rocket_orange_darkred_53x50.png"
         transform="matrix(0.28722343,-0.16561457,0.16561457,0.28722343,97.542257,984.02233)"
         inkscape:transform-center-y="0.2349327"
         inkscape:transform-center-x="-1.1789657"
         d="m 364.28572,286.6479 -5.78978,-28.87984 -27.07283,-11.60293 25.67721,-14.43077 2.66909,-29.33331 21.65917,19.96113 28.72242,-6.52604 -12.29111,26.76743 15.08235,25.29999 -29.2555,-3.41795 z"
         inkscape:randomized="0"
         inkscape:rounded="0"
         inkscape:flatsided="false"
         sodipodi:arg2="2.4597172"
         sodipodi:arg1="1.8313987"
         sodipodi:r2="22.177393"
         sodipodi:r1="44.354786"
         sodipodi:cy="243.79076"
         sodipodi:cx="375.71429"
         sodipodi:sides="5"
         id="path3054"
         style="fill:#ffffff;fill-opacity:1;stroke:none"
         sodipodi:type="star" />
      <path
         inkscape:export-ydpi="11.222174"
         inkscape:export-xdpi="11.222174"
         inkscape:export-filename="/Users/audreyr/code/auditionrocket/ar/assets/img/rocket_orange_darkred_53x50.png"
         transform="matrix(0.97667615,-0.2147177,0.2147177,0.97667615,54.988339,537.78722)"
         inkscape:transform-center-y="3.655396"
         inkscape:transform-center-x="0.60562125"
         d="m 364.28572,286.6479 -5.78978,-28.87984 -27.07283,-11.60293 25.67721,-14.43077 2.66909,-29.33331 21.65917,19.96113 28.72242,-6.52604 -12.29111,26.76743 15.08235,25.29999 -29.2555,-3.41795 z"
         inkscape:randomized="0"
         inkscape:rounded="0"
         inkscape:flatsided="false"
         sodipodi:arg2="2.4597172"
         sodipodi:arg1="1.8313987"
         sodipodi:r2="22.177393"
         sodipodi:r1="44.354786"
         sodipodi:cy="243.79076"
         sodipodi:cx="375.71429"
         sodipodi:sides="5"
         id="path3056"
         style="fill:#ffffff;fill-opacity:1;stroke:#e6e6e6;stroke-width:8.89999962;stroke-miterlimit:4;stroke-opacity:1;stroke-dasharray:none"
         sodipodi:type="star" />
    </g>
  </g>
</svg>
